<?xml version="1.0" standalone="no"?>
<!DOCTYPE svg PUBLIC "-//W3C//DTD SVG 20010904//EN"
 "http://www.w3.org/TR/2001/REC-SVG-20010904/DTD/svg10.dtd">
<svg version="1.0" xmlns="http://www.w3.org/2000/svg"
 width="500.000000pt" height="500.000000pt" viewBox="0 0 500.000000 500.000000"
 preserveAspectRatio="xMidYMid meet">

<g transform="translate(0.000000,500.000000) scale(0.100000,-0.100000)"
fill="#000000" stroke="none">
<path d="M1260 3324 c-41 -32 -131 -101 -200 -153 -190 -144 -170 -109 -170
-288 l0 -153 -115 -76 -115 -77 0 -307 0 -308 -39 -16 c-52 -20 -108 -70 -132
-118 l-19 -38 635 0 635 0 0 438 0 438 -200 133 -200 134 -2 224 -3 224 -75
-57z m43 -380 c78 -53 202 -141 275 -196 l132 -99 0 -65 c0 -50 -3 -63 -12
-58 -7 5 -53 38 -103 74 -49 36 -147 105 -217 154 l-128 87 0 -474 c0 -260 -3
-476 -6 -479 -6 -7 -74 12 -91 25 -17 13 -19 1127 -2 1127 6 0 75 -43 152 -96z
m-273 -459 l0 -75 -40 0 -40 0 0 75 0 75 40 0 40 0 0 -75z m523 -21 c40 -19
76 -69 84 -118 l6 -36 -157 0 -156 0 0 24 c0 106 122 178 223 130z m-523 -234
l0 -70 -40 0 -40 0 0 70 0 70 40 0 40 0 0 -70z m410 -135 l0 -185 -25 0 -25 0
0 185 0 185 25 0 25 0 0 -185z m150 -1 l0 -185 -27 3 -28 3 -3 170 c-1 93 0
175 2 182 3 7 17 13 31 13 l25 0 0 -186z"/>
<path d="M1410 2400 c-17 -16 -29 -34 -25 -40 8 -13 192 -14 199 -1 4 5 -8 23
-25 40 -43 43 -103 44 -149 1z"/>
<path d="M1945 2445 c0 -363 1 -510 2 -327 2 184 2 481 0 660 -1 180 -2 30 -2
-333z"/>
<path d="M2213 3040 c-31 -13 -46 -29 -57 -55 -27 -65 13 -125 100 -150 81
-24 106 -77 49 -103 -26 -12 -71 -2 -110 24 -16 12 -22 11 -42 -8 -13 -12 -23
-25 -23 -30 0 -19 81 -48 135 -48 67 0 109 20 130 60 39 75 -1 136 -110 170
-52 16 -65 27 -65 56 0 31 39 41 98 25 39 -10 46 -10 58 6 20 27 18 32 -28 53
-54 25 -82 25 -135 0z"/>
<path d="M2860 2861 l0 -191 94 0 c61 0 106 5 130 15 35 15 66 57 66 92 0 27
-37 83 -55 83 -21 0 -19 8 10 33 14 12 28 36 31 53 5 26 0 38 -23 64 -30 33
-30 33 -141 38 l-112 5 0 -192z m204 103 c17 -44 -21 -74 -95 -74 l-39 0 0 45
0 45 64 0 c50 0 65 -4 70 -16z m-6 -150 c52 -36 10 -84 -75 -84 l-53 0 0 50 0
50 53 0 c31 0 61 -6 75 -16z"/>
<path d="M2570 3037 c0 -1 -25 -74 -56 -162 -76 -218 -75 -207 -29 -203 33 3
39 7 49 38 l11 35 77 3 77 3 12 -41 c11 -38 14 -40 51 -40 37 0 49 13 30 36
-5 5 -33 82 -63 172 l-54 162 -52 0 c-29 0 -53 -1 -53 -3z m83 -147 l25 -75
-51 -5 c-29 -3 -54 -4 -56 -3 -2 2 4 29 14 60 25 80 35 106 39 102 2 -2 15
-38 29 -79z"/>
<path d="M2130 2421 l0 -141 28 0 c26 0 27 2 24 45 l-4 45 36 0 c96 0 149 90
93 156 -21 24 -32 27 -100 32 l-77 5 0 -142z m140 69 c11 -20 3 -50 -14 -62
-6 -4 -26 -8 -43 -8 -32 0 -33 1 -33 43 0 24 2 46 5 48 11 12 76 -5 85 -21z"/>
<path d="M2388 2523 c0 -21 -1 -56 0 -78 0 -22 1 -68 1 -102 1 -60 2 -63 26
-63 23 0 25 3 25 50 0 68 26 69 61 3 21 -41 30 -48 58 -51 l33 -3 -31 54 -31
54 25 21 c19 16 25 32 25 61 0 64 -41 91 -136 91 l-54 0 -2 -37z m132 -27 c6
-8 10 -25 8 -38 -2 -19 -10 -23 -45 -26 l-43 -3 0 40 c0 40 1 41 34 41 18 0
39 -7 46 -14z"/>
<path d="M2693 2540 c-60 -36 -80 -131 -42 -199 25 -44 46 -59 96 -66 72 -11
139 45 150 123 7 51 -24 120 -66 145 -39 23 -98 22 -138 -3z m124 -52 c18 -17
23 -32 23 -70 0 -103 -100 -135 -146 -46 -45 87 54 181 123 116z"/>
<path d="M2951 2420 l1 -140 29 0 c28 0 29 2 29 45 0 43 1 45 30 45 42 0 84
23 98 55 37 81 -16 135 -133 135 l-55 0 1 -140z m139 71 c5 -11 10 -24 10 -30
0 -19 -32 -41 -61 -41 -28 0 -29 2 -29 45 0 45 0 45 35 45 24 0 37 -6 45 -19z"/>
<path d="M3200 2421 l0 -141 95 0 c95 0 95 0 95 25 0 24 -2 25 -65 25 l-65 0
0 30 c0 29 1 30 50 30 49 0 50 1 50 30 0 29 -1 30 -50 30 -27 0 -50 3 -51 8 0
4 -2 17 -5 30 -4 21 -1 22 61 22 62 0 65 1 65 24 0 23 -3 23 -90 25 l-90 2 0
-140z"/>
<path d="M3450 2420 l0 -140 25 0 c23 0 25 3 25 50 0 42 3 50 19 50 12 0 27
-16 44 -47 20 -40 30 -49 56 -51 l32 -3 -25 46 c-31 55 -32 67 -6 90 22 20 27
73 10 105 -12 23 -68 40 -132 40 l-48 0 0 -140z m136 65 c10 -41 -1 -55 -46
-55 l-40 0 0 40 c0 40 0 40 40 40 34 0 41 -4 46 -25z"/>
<path d="M3690 2533 c0 -20 5 -23 40 -23 l40 0 0 -115 0 -115 25 0 25 0 0 115
0 115 40 0 c35 0 40 3 40 23 0 21 -3 22 -105 22 -102 0 -105 -1 -105 -22z"/>
<path d="M4363 2550 c-41 -17 -56 -77 -29 -116 8 -11 33 -26 55 -34 54 -17 78
-44 61 -65 -16 -20 -60 -19 -88 1 -18 12 -26 13 -37 4 -25 -21 -17 -40 22 -57
78 -32 157 4 157 71 0 43 -22 69 -74 86 -46 15 -65 33 -56 55 6 17 57 20 86 5
27 -14 49 15 28 37 -19 18 -94 27 -125 13z"/>
<path d="M3960 2415 l0 -135 25 0 25 0 0 135 0 135 -25 0 -25 0 0 -135z"/>
<path d="M4080 2410 l0 -141 93 3 c87 3 92 4 95 26 3 21 0 22 -67 22 l-71 0 0
35 0 35 55 0 c52 0 55 1 55 25 0 24 -3 25 -55 25 l-55 0 0 35 0 35 65 0 c58 0
65 2 65 20 0 19 -7 20 -90 20 l-90 0 0 -140z"/>
<path d="M2130 2070 c0 -33 4 -60 10 -60 6 0 10 8 10 19 0 12 9 20 29 24 58
12 46 77 -14 77 l-35 0 0 -60z m61 34 c11 -14 10 -18 -5 -30 -24 -17 -36 -10
-36 22 0 28 21 32 41 8z"/>
<path d="M2250 2071 c0 -33 5 -63 10 -66 6 -4 10 7 10 24 0 39 10 39 33 0 20
-35 36 -34 17 1 -9 16 -9 25 -1 33 16 16 13 54 -5 61 -9 3 -27 6 -40 6 -23 0
-24 -3 -24 -59z m55 24 c0 -11 -8 -21 -17 -23 -14 -3 -18 3 -18 23 0 20 4 26
18 23 9 -2 17 -12 17 -23z"/>
<path d="M2383 2118 c-29 -38 -21 -88 18 -108 50 -27 98 44 65 95 -18 27 -66
34 -83 13z m61 -14 c9 -8 16 -25 16 -38 0 -47 -53 -63 -72 -21 -9 19 -8 29 6
50 19 29 29 31 50 9z"/>
<path d="M2510 2070 c0 -33 4 -60 10 -60 6 0 10 8 10 19 0 13 9 20 30 25 25 5
30 10 30 35 0 30 -14 41 -56 41 -23 0 -24 -3 -24 -60z m60 35 c15 -18 5 -35
-21 -35 -14 0 -19 7 -19 25 0 28 21 33 40 10z"/>
<path d="M2630 2065 l0 -65 40 0 c22 0 40 5 40 10 0 6 -13 10 -30 10 -23 0
-30 4 -30 20 0 13 7 20 20 20 11 0 20 5 20 10 0 6 -9 10 -20 10 -13 0 -20 7
-20 19 0 15 8 21 33 24 28 3 26 4 -10 5 l-43 2 0 -65z"/>
<path d="M2752 2063 c0 -37 3 -53 5 -35 5 40 18 41 38 2 9 -16 19 -30 24 -30
11 0 2 38 -11 46 -5 3 -4 11 2 19 6 8 10 24 8 37 -2 18 -10 24 -35 26 l-33 3
2 -68z m53 32 c0 -13 -8 -21 -22 -23 -19 -3 -23 1 -23 23 0 22 4 26 23 23 14
-2 22 -10 22 -23z"/>
<path d="M2873 2123 c13 -4 17 -15 17 -58 0 -30 5 -57 10 -60 6 -4 10 16 10
54 0 54 2 60 23 64 12 2 0 4 -28 4 -27 1 -42 -1 -32 -4z"/>
<path d="M2980 2118 c0 -7 7 -22 15 -32 8 -11 15 -32 15 -47 0 -15 5 -31 10
-34 6 -4 10 5 10 20 0 15 7 42 16 61 9 19 14 37 11 41 -4 3 -12 -6 -18 -21 -9
-20 -15 -23 -26 -15 -7 6 -13 18 -13 25 0 8 -4 14 -10 14 -5 0 -10 -6 -10 -12z"/>
<path d="M3171 2074 c-21 -54 -20 -88 0 -51 12 21 59 23 59 2 0 -8 5 -15 10
-15 14 0 13 7 -8 64 -9 27 -23 51 -29 53 -6 2 -21 -22 -32 -53z m39 11 c0 -8
0 -18 1 -22 0 -4 -4 -9 -10 -11 -6 -2 -11 8 -11 22 0 14 5 26 10 26 6 0 10 -7
10 -15z"/>
<path d="M3292 2063 c1 -49 3 -56 5 -25 2 23 8 42 12 42 5 0 20 -18 35 -40 15
-23 31 -38 36 -35 13 8 13 125 1 125 -6 0 -11 -19 -13 -42 l-3 -43 -29 43
c-16 23 -33 42 -37 42 -5 0 -8 -30 -7 -67z"/>
<path d="M3430 2065 c0 -63 1 -65 25 -65 30 0 75 41 75 67 0 35 -29 63 -66 63
l-34 0 0 -65z m62 38 c33 -29 17 -83 -24 -83 -15 0 -18 9 -18 50 0 54 10 62
42 33z"/>
<path d="M2130 1855 c0 -37 4 -65 10 -65 6 0 10 28 10 65 0 37 -4 65 -10 65
-6 0 -10 -28 -10 -65z"/>
<path d="M2202 1853 c1 -67 1 -67 7 -18 l6 50 28 -47 c15 -27 32 -48 37 -48 6
0 10 29 10 65 0 37 -4 65 -10 65 -5 0 -10 -21 -10 -47 l-1 -48 -27 47 c-15 27
-30 48 -34 48 -5 0 -7 -30 -6 -67z"/>
<path d="M2321 1908 c1 -26 36 -112 46 -115 6 -2 19 20 28 49 10 29 20 59 23
66 2 6 0 12 -6 12 -5 0 -15 -20 -22 -45 -7 -25 -16 -45 -21 -45 -4 0 -13 18
-19 40 -10 38 -31 65 -29 38z"/>
<path d="M2450 1855 l0 -65 40 0 c22 0 40 5 40 10 0 6 -13 10 -30 10 -23 0
-30 4 -30 20 0 14 7 20 23 21 l22 0 -23 10 c-30 12 -25 41 8 50 21 6 20 7 -12
8 l-38 1 0 -65z"/>
<path d="M2561 1906 c-16 -19 3 -56 28 -56 21 0 36 -26 20 -36 -6 -3 -22 -3
-36 1 -23 5 -25 4 -14 -9 18 -22 58 -20 71 3 11 22 4 51 -14 51 -7 0 -21 7
-32 15 -15 12 -16 16 -5 24 7 5 22 6 34 3 14 -3 18 -1 13 6 -10 17 -51 15 -65
-2z"/>
<path d="M2668 1913 c20 -4 22 -10 22 -64 0 -76 18 -77 22 -1 2 35 7 57 15 57
6 0 15 3 19 8 4 4 -17 6 -47 6 -30 -1 -44 -4 -31 -6z"/>
<path d="M2780 1856 c0 -37 4 -66 10 -66 6 0 10 21 11 48 l1 47 14 -32 c8 -18
18 -33 23 -33 5 0 15 15 22 33 l13 32 4 -47 c5 -71 22 -58 22 17 0 77 -20 89
-46 28 l-16 -38 -16 34 c-29 58 -42 51 -42 -23z"/>
<path d="M2940 1855 l0 -65 40 0 c22 0 40 5 40 10 0 6 -13 10 -30 10 -23 0
-30 5 -30 19 0 12 8 21 23 24 l22 4 -22 2 c-17 1 -23 7 -23 25 0 20 6 25 33
29 28 3 26 4 -10 5 l-43 2 0 -65z"/>
<path d="M3050 1855 c0 -38 4 -65 10 -65 6 0 9 19 7 45 -2 25 0 45 3 45 4 0
18 -20 31 -45 13 -25 27 -45 31 -45 5 0 7 30 6 68 -1 66 -1 66 -7 17 l-6 -50
-28 48 c-15 26 -32 47 -37 47 -6 0 -10 -29 -10 -65z"/>
<path d="M3175 1909 c4 -6 13 -8 21 -5 11 4 14 -7 14 -54 0 -33 4 -60 10 -60
6 0 10 26 10 59 0 54 2 60 23 64 12 2 -2 5 -31 6 -35 1 -51 -3 -47 -10z"/>
<path d="M3368 1909 c-13 -7 -18 -23 -18 -53 0 -35 4 -45 24 -55 27 -15 57
-12 63 6 3 9 -4 11 -25 7 -39 -8 -61 24 -43 64 10 21 16 24 47 19 30 -5 34 -4
24 8 -14 17 -47 19 -72 4z"/>
<path d="M3486 1898 c-22 -31 -20 -64 4 -88 40 -40 90 -15 90 45 0 61 -62 89
-94 43z m72 -10 c28 -28 3 -84 -34 -76 -43 8 -44 88 -1 88 13 0 28 -5 35 -12z"/>
<path d="M3620 1856 c0 -75 17 -90 22 -19 l3 48 25 -48 c35 -67 50 -62 50 18
0 37 -4 65 -10 65 -5 0 -10 -21 -10 -47 0 -51 -6 -50 -37 6 -31 57 -43 51 -43
-23z"/>
<path d="M3762 1911 c-21 -13 -10 -44 21 -59 38 -18 36 -46 -3 -40 -37 6 -40
-9 -4 -18 32 -8 59 15 50 43 -3 10 -20 24 -37 30 -26 10 -30 15 -20 27 7 8 21
12 33 8 14 -3 19 -1 14 6 -8 14 -35 15 -54 3z"/>
<path d="M3860 1877 c0 -52 23 -89 53 -85 27 4 47 42 47 91 0 57 -19 44 -22
-15 -3 -49 -5 -53 -28 -53 -23 0 -25 4 -28 53 -4 62 -22 70 -22 9z"/>
<path d="M4002 1858 l-2 -68 35 0 c19 0 35 5 35 10 0 6 -13 10 -30 10 -28 0
-29 1 -33 58 l-3 57 -2 -67z"/>
<path d="M4088 1908 c19 -9 22 -19 22 -65 0 -29 5 -53 10 -53 6 0 10 27 10 61
0 50 3 60 15 56 8 -4 17 -2 20 3 4 6 -16 10 -47 9 -45 0 -50 -2 -30 -11z"/>
<path d="M4195 1868 c-10 -29 -20 -59 -23 -65 -2 -7 0 -13 6 -13 5 0 12 9 15
20 3 12 14 20 26 20 11 0 25 -9 31 -20 6 -11 15 -20 20 -20 12 0 -33 123 -47
127 -6 2 -19 -20 -28 -49z m44 -20 c1 -5 -6 -8 -14 -8 -15 0 -21 31 -8 44 7 6
20 -17 22 -36z"/>
<path d="M4312 1853 c1 -66 1 -67 7 -19 7 54 13 52 45 -11 25 -50 36 -40 36
32 0 37 -4 65 -10 65 -5 0 -10 -21 -10 -47 l0 -48 -27 48 c-14 26 -30 47 -35
47 -4 0 -7 -30 -6 -67z"/>
<path d="M4430 1911 c0 -5 8 -8 18 -7 14 1 18 -10 23 -59 l6 -60 1 58 c2 50 5
59 25 67 18 7 13 9 -25 9 -27 1 -48 -3 -48 -8z"/>
</g>
</svg>
