<svg xmlns="http://www.w3.org/2000/svg" xmlns:xlink="http://www.w3.org/1999/xlink" width="500" zoomAndPan="magnify" viewBox="0 0 375 374.999991" height="500" preserveAspectRatio="xMidYMid meet" version="1.0"><defs><g/><clipPath id="192af5c00e"><path d="M 5.472656 208 L 24 208 L 24 252.132812 L 5.472656 252.132812 Z M 5.472656 208 " clip-rule="nonzero"/></clipPath><clipPath id="c2b4fcebe8"><path d="M 27 137.382812 L 58 137.382812 L 58 252.132812 L 27 252.132812 Z M 27 137.382812 " clip-rule="nonzero"/></clipPath><clipPath id="d8698313bb"><path d="M 60 167 L 79 167 L 79 252.132812 L 60 252.132812 Z M 60 167 " clip-rule="nonzero"/></clipPath><clipPath id="7ab53ea723"><path d="M 82.59375 220.863281 L 88.722656 220.863281 L 88.722656 252.089844 L 82.59375 252.089844 Z M 82.59375 220.863281 " clip-rule="nonzero"/></clipPath></defs><rect x="-37.5" width="450" fill="#ffffff" y="-37.499999" height="449.999989" fill-opacity="1"/><rect x="-37.5" width="450" fill="#ffffff" y="-37.499999" height="449.999989" fill-opacity="1"/><g clip-path="url(#192af5c00e)"><path fill="#004aad" d="M 23.707031 252.089844 L 23.707031 208.359375 L 5.472656 218.558594 L 5.472656 252.089844 L 23.707031 252.089844 " fill-opacity="1" fill-rule="evenodd"/></g><g clip-path="url(#c2b4fcebe8)"><path fill="#004aad" d="M 27.339844 202.179688 L 36.253906 197.191406 L 38.945312 195.6875 L 38.945312 252.089844 L 45.492188 252.089844 L 45.492188 154.601562 L 48.164062 156.050781 L 57.1875 160.941406 L 57.1875 145.105469 L 42.679688 137.402344 L 27.339844 145.128906 L 27.339844 202.179688 " fill-opacity="1" fill-rule="evenodd"/></g><g clip-path="url(#d8698313bb)"><path fill="#004aad" d="M 60.820312 167.035156 L 60.820312 252.089844 L 68.917969 252.089844 L 68.917969 205.546875 L 71.855469 207.855469 L 78.976562 213.445312 L 78.976562 176.875 L 60.820312 167.035156 " fill-opacity="1" fill-rule="evenodd"/></g><g clip-path="url(#7ab53ea723)"><path fill="#004aad" d="M 82.597656 220.898438 L 82.597656 252.089844 L 88.792969 252.089844 L 88.792969 225.761719 L 82.597656 220.898438 " fill-opacity="1" fill-rule="evenodd"/></g><path stroke-linecap="butt" transform="matrix(0.00218019, -0.749997, 0.749997, 0.00218019, 101.417057, 252.112512)" fill="none" stroke-linejoin="miter" d="M 0.000431659 0.501216 L 152.980244 0.499224 " stroke="#0b1320" stroke-width="1" stroke-opacity="1" stroke-miterlimit="4"/><g fill="#0b1320" fill-opacity="1"><g transform="translate(113.754592, 169.646166)"><g><path d="M 17.296875 -23.15625 C 17.628906 -23.15625 18.007812 -23.210938 18.4375 -23.328125 C 18.863281 -23.441406 19.21875 -23.664062 19.5 -24 L 20.421875 -16.3125 L 19.671875 -16.203125 C 19.441406 -16.816406 19.097656 -17.414062 18.640625 -18 C 18.191406 -18.59375 17.671875 -19.113281 17.078125 -19.5625 C 16.492188 -20.019531 15.851562 -20.382812 15.15625 -20.65625 C 14.457031 -20.925781 13.742188 -21.0625 13.015625 -21.0625 C 12.585938 -21.0625 12.140625 -21.003906 11.671875 -20.890625 C 11.210938 -20.785156 10.796875 -20.617188 10.421875 -20.390625 C 10.046875 -20.171875 9.734375 -19.882812 9.484375 -19.53125 C 9.234375 -19.175781 9.109375 -18.753906 9.109375 -18.265625 C 9.109375 -17.929688 9.164062 -17.640625 9.28125 -17.390625 C 9.40625 -17.140625 9.609375 -16.914062 9.890625 -16.71875 C 10.171875 -16.519531 10.546875 -16.332031 11.015625 -16.15625 C 11.492188 -15.976562 12.085938 -15.78125 12.796875 -15.5625 L 16.953125 -14.328125 C 17.773438 -14.066406 18.546875 -13.734375 19.265625 -13.328125 C 19.984375 -12.929688 20.609375 -12.453125 21.140625 -11.890625 C 21.679688 -11.335938 22.097656 -10.726562 22.390625 -10.0625 C 22.679688 -9.40625 22.828125 -8.710938 22.828125 -7.984375 C 22.828125 -5.191406 21.847656 -3.066406 19.890625 -1.609375 C 17.929688 -0.160156 15 0.5625 11.09375 0.5625 C 10.101562 0.5625 9.175781 0.503906 8.3125 0.390625 C 7.445312 0.273438 6.722656 0.15625 6.140625 0.03125 C 5.734375 -0.0390625 5.320312 -0.113281 4.90625 -0.1875 C 4.5 -0.269531 4.128906 -0.3125 3.796875 -0.3125 C 3.460938 -0.3125 3.140625 -0.253906 2.828125 -0.140625 C 2.523438 -0.0234375 2.207031 0.195312 1.875 0.53125 L 1.09375 -9.359375 L 1.875 -9.46875 C 2.039062 -8.425781 2.363281 -7.46875 2.84375 -6.59375 C 3.332031 -5.71875 3.941406 -4.960938 4.671875 -4.328125 C 5.410156 -3.691406 6.242188 -3.1875 7.171875 -2.8125 C 8.109375 -2.445312 9.109375 -2.265625 10.171875 -2.265625 C 11.171875 -2.265625 11.992188 -2.359375 12.640625 -2.546875 C 13.285156 -2.742188 13.804688 -3 14.203125 -3.3125 C 14.609375 -3.632812 14.894531 -4.003906 15.0625 -4.421875 C 15.226562 -4.847656 15.3125 -5.300781 15.3125 -5.78125 C 15.3125 -5.988281 15.273438 -6.203125 15.203125 -6.421875 C 15.140625 -6.648438 14.988281 -6.890625 14.75 -7.140625 C 14.507812 -7.390625 14.148438 -7.644531 13.671875 -7.90625 C 13.203125 -8.164062 12.566406 -8.425781 11.765625 -8.6875 L 7.984375 -9.921875 C 6.847656 -10.273438 5.882812 -10.65625 5.09375 -11.0625 C 4.300781 -11.46875 3.664062 -11.972656 3.1875 -12.578125 C 2.789062 -13.078125 2.472656 -13.625 2.234375 -14.21875 C 1.992188 -14.8125 1.875 -15.445312 1.875 -16.125 C 1.875 -17.3125 2.070312 -18.375 2.46875 -19.3125 C 2.875 -20.257812 3.492188 -21.078125 4.328125 -21.765625 C 5.109375 -22.398438 6.050781 -22.910156 7.15625 -23.296875 C 8.269531 -23.691406 9.5 -23.890625 10.84375 -23.890625 C 12.070312 -23.890625 13.164062 -23.816406 14.125 -23.671875 C 15.082031 -23.535156 15.820312 -23.410156 16.34375 -23.296875 C 16.789062 -23.203125 17.109375 -23.15625 17.296875 -23.15625 Z M 17.296875 -23.15625 "/></g></g></g><g fill="#0b1320" fill-opacity="1"><g transform="translate(138.321428, 169.646166)"><g><path d="M 11.90625 -18.609375 L 9.4375 -11.234375 C 10.664062 -11.210938 11.753906 -11.003906 12.703125 -10.609375 C 13.660156 -10.222656 14.363281 -9.863281 14.8125 -9.53125 Z M 19.53125 -23.328125 L 19.53125 -22.4375 C 19.269531 -22.394531 19.066406 -22.3125 18.921875 -22.1875 C 18.785156 -22.070312 18.71875 -21.875 18.71875 -21.59375 C 18.71875 -21.570312 18.726562 -21.5 18.75 -21.375 C 18.78125 -21.257812 18.832031 -21.066406 18.90625 -20.796875 C 18.988281 -20.523438 19.109375 -20.144531 19.265625 -19.65625 C 19.421875 -19.175781 19.628906 -18.554688 19.890625 -17.796875 L 24.421875 -4.390625 C 24.546875 -4.035156 24.675781 -3.660156 24.8125 -3.265625 C 24.957031 -2.878906 25.132812 -2.519531 25.34375 -2.1875 C 25.5625 -1.863281 25.816406 -1.578125 26.109375 -1.328125 C 26.398438 -1.078125 26.757812 -0.929688 27.1875 -0.890625 L 27.1875 0 L 14.96875 0 L 14.96875 -0.890625 C 15.53125 -0.929688 15.992188 -1.128906 16.359375 -1.484375 C 16.722656 -1.835938 16.90625 -2.320312 16.90625 -2.9375 C 16.90625 -3.863281 16.628906 -4.691406 16.078125 -5.421875 C 15.523438 -6.148438 14.832031 -6.773438 14 -7.296875 C 13.175781 -7.816406 12.28125 -8.210938 11.3125 -8.484375 C 10.34375 -8.765625 9.429688 -8.914062 8.578125 -8.9375 L 7.296875 -5.3125 C 7.296875 -5.289062 7.257812 -5.171875 7.1875 -4.953125 C 7.125 -4.742188 7.050781 -4.492188 6.96875 -4.203125 C 6.882812 -3.910156 6.804688 -3.601562 6.734375 -3.28125 C 6.660156 -2.957031 6.625 -2.679688 6.625 -2.453125 C 6.625 -1.953125 6.757812 -1.578125 7.03125 -1.328125 C 7.300781 -1.078125 7.710938 -0.929688 8.265625 -0.890625 L 8.265625 0 L 0.453125 0 L 0.453125 -0.890625 C 0.929688 -0.984375 1.34375 -1.164062 1.6875 -1.4375 C 2.03125 -1.707031 2.320312 -2.023438 2.5625 -2.390625 C 2.8125 -2.753906 3.03125 -3.148438 3.21875 -3.578125 C 3.414062 -4.003906 3.597656 -4.429688 3.765625 -4.859375 L 9.359375 -19.53125 C 9.597656 -20.144531 9.757812 -20.585938 9.84375 -20.859375 C 9.925781 -21.128906 9.96875 -21.363281 9.96875 -21.5625 C 9.96875 -22.070312 9.707031 -22.363281 9.1875 -22.4375 L 9.1875 -23.328125 Z M 19.53125 -23.328125 "/></g></g></g><g fill="#0b1320" fill-opacity="1"><g transform="translate(167.142158, 169.646166)"><g><path d="M 9.71875 -11.703125 L 9.71875 -4.390625 C 9.71875 -3.992188 9.738281 -3.660156 9.78125 -3.390625 C 9.832031 -3.117188 9.929688 -2.90625 10.078125 -2.75 C 10.234375 -2.59375 10.445312 -2.484375 10.71875 -2.421875 C 10.988281 -2.367188 11.363281 -2.34375 11.84375 -2.34375 C 13.375 -2.34375 14.628906 -2.75 15.609375 -3.5625 C 16.597656 -4.375 17.09375 -5.570312 17.09375 -7.15625 C 17.09375 -8.4375 16.75 -9.546875 16.0625 -10.484375 C 15.375 -11.429688 14.441406 -12.238281 13.265625 -12.90625 Z M 12.265625 -20.984375 C 11.484375 -20.984375 10.863281 -20.847656 10.40625 -20.578125 C 9.945312 -20.304688 9.71875 -19.757812 9.71875 -18.9375 L 9.71875 -14.25 C 10.28125 -14.394531 10.894531 -14.585938 11.5625 -14.828125 C 12.238281 -15.078125 12.875 -15.390625 13.46875 -15.765625 C 14.0625 -16.148438 14.554688 -16.597656 14.953125 -17.109375 C 15.359375 -17.617188 15.5625 -18.203125 15.5625 -18.859375 C 15.5625 -19.234375 15.46875 -19.554688 15.28125 -19.828125 C 15.09375 -20.109375 14.84375 -20.335938 14.53125 -20.515625 C 14.226562 -20.691406 13.878906 -20.8125 13.484375 -20.875 C 13.097656 -20.945312 12.691406 -20.984375 12.265625 -20.984375 Z M 16.734375 -23.328125 C 17.441406 -23.328125 18.148438 -23.289062 18.859375 -23.21875 C 19.566406 -23.144531 20.191406 -22.984375 20.734375 -22.734375 C 21.285156 -22.492188 21.726562 -22.140625 22.0625 -21.671875 C 22.40625 -21.210938 22.578125 -20.59375 22.578125 -19.8125 C 22.578125 -19.132812 22.398438 -18.507812 22.046875 -17.9375 C 21.691406 -17.375 21.226562 -16.863281 20.65625 -16.40625 C 20.09375 -15.957031 19.457031 -15.554688 18.75 -15.203125 C 18.039062 -14.847656 17.332031 -14.53125 16.625 -14.25 C 17.664062 -14.0625 18.671875 -13.773438 19.640625 -13.390625 C 20.609375 -13.015625 21.457031 -12.519531 22.1875 -11.90625 C 22.925781 -11.289062 23.515625 -10.554688 23.953125 -9.703125 C 24.390625 -8.859375 24.609375 -7.894531 24.609375 -6.8125 C 24.609375 -6.425781 24.566406 -6.007812 24.484375 -5.5625 C 24.398438 -5.113281 24.238281 -4.648438 24 -4.171875 C 23.757812 -3.703125 23.445312 -3.238281 23.0625 -2.78125 C 22.675781 -2.320312 22.160156 -1.890625 21.515625 -1.484375 C 20.785156 -1.015625 19.894531 -0.648438 18.84375 -0.390625 C 17.789062 -0.128906 16.460938 0 14.859375 0 L 0.5 0 L 0.5 -0.890625 C 0.726562 -0.890625 0.960938 -0.921875 1.203125 -0.984375 C 1.441406 -1.054688 1.65625 -1.210938 1.84375 -1.453125 C 2.03125 -1.691406 2.175781 -2.035156 2.28125 -2.484375 C 2.394531 -2.929688 2.453125 -3.519531 2.453125 -4.25 L 2.453125 -19.078125 C 2.453125 -19.804688 2.394531 -20.394531 2.28125 -20.84375 C 2.175781 -21.289062 2.03125 -21.632812 1.84375 -21.875 C 1.65625 -22.113281 1.441406 -22.265625 1.203125 -22.328125 C 0.960938 -22.398438 0.726562 -22.4375 0.5 -22.4375 L 0.5 -23.328125 Z M 16.734375 -23.328125 "/></g></g></g><g fill="#0b1320" fill-opacity="1"><g transform="translate(113.754592, 207.896163)"><g><path d="M 12.125 -20.984375 C 11.601562 -20.984375 11.175781 -20.9375 10.84375 -20.84375 C 10.519531 -20.75 10.269531 -20.59375 10.09375 -20.375 C 9.914062 -20.164062 9.796875 -19.890625 9.734375 -19.546875 C 9.671875 -19.203125 9.640625 -18.785156 9.640625 -18.296875 L 9.640625 -13.296875 C 10.234375 -13.429688 10.882812 -13.625 11.59375 -13.875 C 12.300781 -14.125 12.960938 -14.445312 13.578125 -14.84375 C 14.191406 -15.25 14.703125 -15.722656 15.109375 -16.265625 C 15.523438 -16.816406 15.734375 -17.457031 15.734375 -18.1875 C 15.734375 -19.15625 15.390625 -19.863281 14.703125 -20.3125 C 14.023438 -20.757812 13.164062 -20.984375 12.125 -20.984375 Z M 15.84375 -23.328125 C 16.15625 -23.328125 16.570312 -23.320312 17.09375 -23.3125 C 17.613281 -23.300781 18.148438 -23.265625 18.703125 -23.203125 C 19.253906 -23.140625 19.800781 -23.039062 20.34375 -22.90625 C 20.894531 -22.78125 21.347656 -22.585938 21.703125 -22.328125 C 22.097656 -22.046875 22.453125 -21.664062 22.765625 -21.1875 C 23.085938 -20.71875 23.25 -20.109375 23.25 -19.359375 C 23.25 -18.390625 23.035156 -17.519531 22.609375 -16.75 C 22.191406 -15.976562 21.46875 -15.253906 20.4375 -14.578125 C 19.40625 -13.910156 18.03125 -13.269531 16.3125 -12.65625 C 14.601562 -12.039062 12.472656 -11.414062 9.921875 -10.78125 L 9.640625 -10.703125 L 9.640625 -4.296875 C 9.640625 -3.515625 9.71875 -2.894531 9.875 -2.4375 C 10.03125 -1.988281 10.210938 -1.644531 10.421875 -1.40625 C 10.640625 -1.175781 10.867188 -1.03125 11.109375 -0.96875 C 11.359375 -0.914062 11.59375 -0.890625 11.8125 -0.890625 L 11.8125 0 L 0.5 0 L 0.5 -0.890625 C 0.757812 -0.890625 1.003906 -0.929688 1.234375 -1.015625 C 1.472656 -1.097656 1.675781 -1.253906 1.84375 -1.484375 C 2.007812 -1.722656 2.140625 -2.0625 2.234375 -2.5 C 2.328125 -2.9375 2.375 -3.507812 2.375 -4.21875 L 2.375 -19.109375 C 2.375 -19.816406 2.328125 -20.390625 2.234375 -20.828125 C 2.140625 -21.265625 2.003906 -21.597656 1.828125 -21.828125 C 1.648438 -22.066406 1.445312 -22.226562 1.21875 -22.3125 C 1 -22.394531 0.757812 -22.4375 0.5 -22.4375 L 0.5 -23.328125 Z M 15.84375 -23.328125 "/></g></g></g><g fill="#0b1320" fill-opacity="1"><g transform="translate(138.321428, 207.896163)"><g><path d="M 12.296875 -20.984375 C 11.453125 -20.984375 10.800781 -20.835938 10.34375 -20.546875 C 9.894531 -20.253906 9.671875 -19.597656 9.671875 -18.578125 L 9.671875 -13.21875 C 10.316406 -13.382812 10.96875 -13.597656 11.625 -13.859375 C 12.289062 -14.117188 12.898438 -14.445312 13.453125 -14.84375 C 14.003906 -15.25 14.457031 -15.726562 14.8125 -16.28125 C 15.164062 -16.84375 15.34375 -17.503906 15.34375 -18.265625 C 15.34375 -19.015625 15.109375 -19.65625 14.640625 -20.1875 C 14.171875 -20.71875 13.390625 -20.984375 12.296875 -20.984375 Z M 16.703125 -23.328125 C 17.992188 -23.328125 19.046875 -23.210938 19.859375 -22.984375 C 20.679688 -22.765625 21.3125 -22.484375 21.75 -22.140625 C 22.1875 -21.796875 22.484375 -21.410156 22.640625 -20.984375 C 22.796875 -20.554688 22.875 -20.144531 22.875 -19.75 C 22.875 -19.269531 22.796875 -18.78125 22.640625 -18.28125 C 22.484375 -17.789062 22.210938 -17.285156 21.828125 -16.765625 C 21.453125 -16.242188 20.941406 -15.722656 20.296875 -15.203125 C 19.648438 -14.679688 18.828125 -14.164062 17.828125 -13.65625 C 19.109375 -12.394531 20.253906 -10.925781 21.265625 -9.25 C 22.285156 -7.570312 23.113281 -5.753906 23.75 -3.796875 C 24.132812 -2.660156 24.539062 -1.894531 24.96875 -1.5 C 25.40625 -1.113281 25.882812 -0.910156 26.40625 -0.890625 L 26.40625 0 L 14.5 0 L 14.5 -0.890625 C 14.90625 -0.890625 15.25 -0.957031 15.53125 -1.09375 C 15.8125 -1.238281 15.953125 -1.5625 15.953125 -2.0625 C 15.953125 -2.601562 15.753906 -3.296875 15.359375 -4.140625 C 14.972656 -4.992188 14.507812 -5.863281 13.96875 -6.75 C 13.425781 -7.632812 12.867188 -8.472656 12.296875 -9.265625 C 11.734375 -10.054688 11.273438 -10.65625 10.921875 -11.0625 L 9.671875 -10.640625 L 9.671875 -4.25 C 9.671875 -3.5 9.722656 -2.90625 9.828125 -2.46875 C 9.941406 -2.03125 10.09375 -1.695312 10.28125 -1.46875 C 10.46875 -1.25 10.671875 -1.097656 10.890625 -1.015625 C 11.117188 -0.929688 11.363281 -0.890625 11.625 -0.890625 L 11.625 0 L 0.5 0 L 0.5 -0.890625 C 0.757812 -0.890625 1.003906 -0.929688 1.234375 -1.015625 C 1.472656 -1.097656 1.679688 -1.253906 1.859375 -1.484375 C 2.035156 -1.722656 2.175781 -2.0625 2.28125 -2.5 C 2.394531 -2.9375 2.453125 -3.519531 2.453125 -4.25 L 2.453125 -19.078125 C 2.453125 -19.804688 2.390625 -20.394531 2.265625 -20.84375 C 2.148438 -21.289062 2.003906 -21.632812 1.828125 -21.875 C 1.648438 -22.113281 1.441406 -22.265625 1.203125 -22.328125 C 0.960938 -22.398438 0.726562 -22.4375 0.5 -22.4375 L 0.5 -23.328125 Z M 16.703125 -23.328125 "/></g></g></g><g fill="#0b1320" fill-opacity="1"><g transform="translate(165.015217, 207.896163)"><g><path d="M 13.296875 -20.875 C 12.753906 -20.875 12.15625 -20.703125 11.5 -20.359375 C 10.851562 -20.023438 10.257812 -19.359375 9.71875 -18.359375 C 9.382812 -17.742188 9.125 -17.007812 8.9375 -16.15625 C 8.75 -15.3125 8.65625 -14.273438 8.65625 -13.046875 C 8.65625 -11.273438 8.8125 -9.726562 9.125 -8.40625 C 9.445312 -7.082031 9.875 -5.976562 10.40625 -5.09375 C 10.9375 -4.207031 11.550781 -3.546875 12.25 -3.109375 C 12.945312 -2.671875 13.660156 -2.453125 14.390625 -2.453125 C 14.628906 -2.453125 14.921875 -2.484375 15.265625 -2.546875 C 15.609375 -2.617188 15.96875 -2.765625 16.34375 -2.984375 C 16.71875 -3.210938 17.085938 -3.546875 17.453125 -3.984375 C 17.828125 -4.421875 18.144531 -4.992188 18.40625 -5.703125 C 18.59375 -6.242188 18.742188 -6.882812 18.859375 -7.625 C 18.972656 -8.375 19.03125 -9.25 19.03125 -10.25 C 19.03125 -12.257812 18.867188 -13.898438 18.546875 -15.171875 C 18.234375 -16.453125 17.816406 -17.492188 17.296875 -18.296875 C 16.640625 -19.304688 15.957031 -19.988281 15.25 -20.34375 C 14.539062 -20.695312 13.890625 -20.875 13.296875 -20.875 Z M 0.84375 -11.734375 C 0.84375 -13.648438 1.1875 -15.359375 1.875 -16.859375 C 2.5625 -18.359375 3.492188 -19.632812 4.671875 -20.6875 C 5.859375 -21.738281 7.25 -22.535156 8.84375 -23.078125 C 10.4375 -23.617188 12.144531 -23.890625 13.96875 -23.890625 C 16.144531 -23.890625 18.054688 -23.566406 19.703125 -22.921875 C 21.359375 -22.273438 22.71875 -21.359375 23.78125 -20.171875 C 24.820312 -19.035156 25.59375 -17.710938 26.09375 -16.203125 C 26.59375 -14.691406 26.84375 -13.117188 26.84375 -11.484375 C 26.84375 -9.710938 26.546875 -8.117188 25.953125 -6.703125 C 25.359375 -5.285156 24.648438 -4.125 23.828125 -3.21875 C 23.210938 -2.582031 22.519531 -2.019531 21.75 -1.53125 C 20.976562 -1.050781 20.15625 -0.65625 19.28125 -0.34375 C 18.40625 -0.0390625 17.515625 0.179688 16.609375 0.328125 C 15.703125 0.484375 14.820312 0.5625 13.96875 0.5625 C 13.070312 0.5625 12.1875 0.492188 11.3125 0.359375 C 10.4375 0.234375 9.632812 0.0546875 8.90625 -0.171875 C 7.550781 -0.578125 6.394531 -1.132812 5.4375 -1.84375 C 4.476562 -2.550781 3.691406 -3.351562 3.078125 -4.25 C 2.328125 -5.3125 1.765625 -6.488281 1.390625 -7.78125 C 1.023438 -9.070312 0.84375 -10.390625 0.84375 -11.734375 Z M 0.84375 -11.734375 "/></g></g></g><g fill="#0b1320" fill-opacity="1"><g transform="translate(193.835947, 207.896163)"><g><path d="M 12.125 -20.984375 C 11.601562 -20.984375 11.175781 -20.9375 10.84375 -20.84375 C 10.519531 -20.75 10.269531 -20.59375 10.09375 -20.375 C 9.914062 -20.164062 9.796875 -19.890625 9.734375 -19.546875 C 9.671875 -19.203125 9.640625 -18.785156 9.640625 -18.296875 L 9.640625 -13.296875 C 10.234375 -13.429688 10.882812 -13.625 11.59375 -13.875 C 12.300781 -14.125 12.960938 -14.445312 13.578125 -14.84375 C 14.191406 -15.25 14.703125 -15.722656 15.109375 -16.265625 C 15.523438 -16.816406 15.734375 -17.457031 15.734375 -18.1875 C 15.734375 -19.15625 15.390625 -19.863281 14.703125 -20.3125 C 14.023438 -20.757812 13.164062 -20.984375 12.125 -20.984375 Z M 15.84375 -23.328125 C 16.15625 -23.328125 16.570312 -23.320312 17.09375 -23.3125 C 17.613281 -23.300781 18.148438 -23.265625 18.703125 -23.203125 C 19.253906 -23.140625 19.800781 -23.039062 20.34375 -22.90625 C 20.894531 -22.78125 21.347656 -22.585938 21.703125 -22.328125 C 22.097656 -22.046875 22.453125 -21.664062 22.765625 -21.1875 C 23.085938 -20.71875 23.25 -20.109375 23.25 -19.359375 C 23.25 -18.390625 23.035156 -17.519531 22.609375 -16.75 C 22.191406 -15.976562 21.46875 -15.253906 20.4375 -14.578125 C 19.40625 -13.910156 18.03125 -13.269531 16.3125 -12.65625 C 14.601562 -12.039062 12.472656 -11.414062 9.921875 -10.78125 L 9.640625 -10.703125 L 9.640625 -4.296875 C 9.640625 -3.515625 9.71875 -2.894531 9.875 -2.4375 C 10.03125 -1.988281 10.210938 -1.644531 10.421875 -1.40625 C 10.640625 -1.175781 10.867188 -1.03125 11.109375 -0.96875 C 11.359375 -0.914062 11.59375 -0.890625 11.8125 -0.890625 L 11.8125 0 L 0.5 0 L 0.5 -0.890625 C 0.757812 -0.890625 1.003906 -0.929688 1.234375 -1.015625 C 1.472656 -1.097656 1.675781 -1.253906 1.84375 -1.484375 C 2.007812 -1.722656 2.140625 -2.0625 2.234375 -2.5 C 2.328125 -2.9375 2.375 -3.507812 2.375 -4.21875 L 2.375 -19.109375 C 2.375 -19.816406 2.328125 -20.390625 2.234375 -20.828125 C 2.140625 -21.265625 2.003906 -21.597656 1.828125 -21.828125 C 1.648438 -22.066406 1.445312 -22.226562 1.21875 -22.3125 C 1 -22.394531 0.757812 -22.4375 0.5 -22.4375 L 0.5 -23.328125 Z M 15.84375 -23.328125 "/></g></g></g><g fill="#0b1320" fill-opacity="1"><g transform="translate(218.402783, 207.896163)"><g><path d="M 16.84375 -23.328125 C 17.332031 -23.328125 17.722656 -23.335938 18.015625 -23.359375 C 18.316406 -23.390625 18.5625 -23.425781 18.75 -23.46875 C 18.9375 -23.519531 19.082031 -23.578125 19.1875 -23.640625 C 19.300781 -23.710938 19.40625 -23.796875 19.5 -23.890625 L 21.3125 -15.734375 L 20.53125 -15.5 C 19.988281 -17.21875 19.03125 -18.5625 17.65625 -19.53125 C 16.28125 -20.5 14.6875 -20.984375 12.875 -20.984375 C 12.164062 -20.984375 11.597656 -20.9375 11.171875 -20.84375 C 10.742188 -20.75 10.414062 -20.566406 10.1875 -20.296875 C 9.96875 -20.023438 9.820312 -19.644531 9.75 -19.15625 C 9.675781 -18.675781 9.640625 -18.035156 9.640625 -17.234375 L 9.640625 -15.703125 L 10.84375 -15.703125 C 11.132812 -15.703125 11.457031 -15.703125 11.8125 -15.703125 C 12.164062 -15.703125 12.519531 -15.722656 12.875 -15.765625 C 13.226562 -15.816406 13.566406 -15.890625 13.890625 -15.984375 C 14.222656 -16.078125 14.5 -16.222656 14.71875 -16.421875 C 15.1875 -16.816406 15.421875 -17.535156 15.421875 -18.578125 L 16.125 -18.6875 L 17.6875 -9.671875 L 16.984375 -9.609375 C 16.648438 -10.410156 16.285156 -11.054688 15.890625 -11.546875 C 15.503906 -12.046875 15.0625 -12.429688 14.5625 -12.703125 C 14.070312 -12.984375 13.503906 -13.160156 12.859375 -13.234375 C 12.222656 -13.316406 11.503906 -13.359375 10.703125 -13.359375 L 9.640625 -13.359375 L 9.640625 -5.5 C 9.640625 -4.238281 9.90625 -3.394531 10.4375 -2.96875 C 10.96875 -2.550781 11.847656 -2.34375 13.078125 -2.34375 C 14.171875 -2.34375 15.15625 -2.488281 16.03125 -2.78125 C 16.90625 -3.070312 17.671875 -3.441406 18.328125 -3.890625 C 18.992188 -4.347656 19.566406 -4.84375 20.046875 -5.375 C 20.535156 -5.90625 20.9375 -6.414062 21.25 -6.90625 C 21.570312 -7.40625 21.828125 -7.835938 22.015625 -8.203125 C 22.203125 -8.566406 22.332031 -8.8125 22.40625 -8.9375 L 23.15625 -8.65625 L 20.140625 0.5625 C 20.015625 0.445312 19.820312 0.320312 19.5625 0.1875 C 19.3125 0.0625 18.851562 0 18.1875 0 L 0.421875 0 L 0.421875 -0.890625 C 0.660156 -0.890625 0.894531 -0.921875 1.125 -0.984375 C 1.363281 -1.054688 1.578125 -1.210938 1.765625 -1.453125 C 1.960938 -1.691406 2.113281 -2.035156 2.21875 -2.484375 C 2.320312 -2.929688 2.375 -3.519531 2.375 -4.25 L 2.375 -19.078125 C 2.375 -19.804688 2.320312 -20.394531 2.21875 -20.84375 C 2.113281 -21.289062 1.960938 -21.625 1.765625 -21.84375 C 1.578125 -22.070312 1.363281 -22.226562 1.125 -22.3125 C 0.894531 -22.394531 0.660156 -22.4375 0.421875 -22.4375 L 0.421875 -23.328125 Z M 16.84375 -23.328125 "/></g></g></g><g fill="#0b1320" fill-opacity="1"><g transform="translate(242.969618, 207.896163)"><g><path d="M 12.296875 -20.984375 C 11.453125 -20.984375 10.800781 -20.835938 10.34375 -20.546875 C 9.894531 -20.253906 9.671875 -19.597656 9.671875 -18.578125 L 9.671875 -13.21875 C 10.316406 -13.382812 10.96875 -13.597656 11.625 -13.859375 C 12.289062 -14.117188 12.898438 -14.445312 13.453125 -14.84375 C 14.003906 -15.25 14.457031 -15.726562 14.8125 -16.28125 C 15.164062 -16.84375 15.34375 -17.503906 15.34375 -18.265625 C 15.34375 -19.015625 15.109375 -19.65625 14.640625 -20.1875 C 14.171875 -20.71875 13.390625 -20.984375 12.296875 -20.984375 Z M 16.703125 -23.328125 C 17.992188 -23.328125 19.046875 -23.210938 19.859375 -22.984375 C 20.679688 -22.765625 21.3125 -22.484375 21.75 -22.140625 C 22.1875 -21.796875 22.484375 -21.410156 22.640625 -20.984375 C 22.796875 -20.554688 22.875 -20.144531 22.875 -19.75 C 22.875 -19.269531 22.796875 -18.78125 22.640625 -18.28125 C 22.484375 -17.789062 22.210938 -17.285156 21.828125 -16.765625 C 21.453125 -16.242188 20.941406 -15.722656 20.296875 -15.203125 C 19.648438 -14.679688 18.828125 -14.164062 17.828125 -13.65625 C 19.109375 -12.394531 20.253906 -10.925781 21.265625 -9.25 C 22.285156 -7.570312 23.113281 -5.753906 23.75 -3.796875 C 24.132812 -2.660156 24.539062 -1.894531 24.96875 -1.5 C 25.40625 -1.113281 25.882812 -0.910156 26.40625 -0.890625 L 26.40625 0 L 14.5 0 L 14.5 -0.890625 C 14.90625 -0.890625 15.25 -0.957031 15.53125 -1.09375 C 15.8125 -1.238281 15.953125 -1.5625 15.953125 -2.0625 C 15.953125 -2.601562 15.753906 -3.296875 15.359375 -4.140625 C 14.972656 -4.992188 14.507812 -5.863281 13.96875 -6.75 C 13.425781 -7.632812 12.867188 -8.472656 12.296875 -9.265625 C 11.734375 -10.054688 11.273438 -10.65625 10.921875 -11.0625 L 9.671875 -10.640625 L 9.671875 -4.25 C 9.671875 -3.5 9.722656 -2.90625 9.828125 -2.46875 C 9.941406 -2.03125 10.09375 -1.695312 10.28125 -1.46875 C 10.46875 -1.25 10.671875 -1.097656 10.890625 -1.015625 C 11.117188 -0.929688 11.363281 -0.890625 11.625 -0.890625 L 11.625 0 L 0.5 0 L 0.5 -0.890625 C 0.757812 -0.890625 1.003906 -0.929688 1.234375 -1.015625 C 1.472656 -1.097656 1.679688 -1.253906 1.859375 -1.484375 C 2.035156 -1.722656 2.175781 -2.0625 2.28125 -2.5 C 2.394531 -2.9375 2.453125 -3.519531 2.453125 -4.25 L 2.453125 -19.078125 C 2.453125 -19.804688 2.390625 -20.394531 2.265625 -20.84375 C 2.148438 -21.289062 2.003906 -21.632812 1.828125 -21.875 C 1.648438 -22.113281 1.441406 -22.265625 1.203125 -22.328125 C 0.960938 -22.398438 0.726562 -22.4375 0.5 -22.4375 L 0.5 -23.328125 Z M 16.703125 -23.328125 "/></g></g></g><g fill="#0b1320" fill-opacity="1"><g transform="translate(269.663407, 207.896163)"><g><path d="M 1.34375 -23.890625 C 1.363281 -23.847656 1.410156 -23.789062 1.484375 -23.71875 C 1.554688 -23.644531 1.679688 -23.578125 1.859375 -23.515625 C 2.035156 -23.460938 2.28125 -23.414062 2.59375 -23.375 C 2.914062 -23.34375 3.351562 -23.328125 3.90625 -23.328125 L 17.1875 -23.328125 C 17.757812 -23.328125 18.21875 -23.335938 18.5625 -23.359375 C 18.90625 -23.390625 19.171875 -23.425781 19.359375 -23.46875 C 19.546875 -23.519531 19.6875 -23.578125 19.78125 -23.640625 C 19.875 -23.710938 19.957031 -23.796875 20.03125 -23.890625 L 21.65625 -15.8125 L 20.953125 -15.671875 C 20.335938 -17.273438 19.503906 -18.488281 18.453125 -19.3125 C 17.398438 -20.144531 16.007812 -20.617188 14.28125 -20.734375 L 14.28125 -4.4375 C 14.28125 -3.0625 14.5 -2.128906 14.9375 -1.640625 C 15.375 -1.160156 16.09375 -0.910156 17.09375 -0.890625 L 17.09375 0 L 4.21875 0 L 4.21875 -0.890625 C 5.207031 -0.910156 5.921875 -1.160156 6.359375 -1.640625 C 6.796875 -2.128906 7.015625 -3.0625 7.015625 -4.4375 L 7.015625 -20.734375 C 5.410156 -20.691406 4.007812 -20.257812 2.8125 -19.4375 C 1.625 -18.625 0.804688 -17.367188 0.359375 -15.671875 L -0.390625 -15.8125 Z M 1.34375 -23.890625 "/></g></g></g><g fill="#0b1320" fill-opacity="1"><g transform="translate(292.103291, 207.896163)"><g><path d="M 11.625 -23.328125 L 11.625 -22.4375 C 11.363281 -22.4375 11.113281 -22.394531 10.875 -22.3125 C 10.644531 -22.226562 10.441406 -22.066406 10.265625 -21.828125 C 10.085938 -21.597656 9.941406 -21.265625 9.828125 -20.828125 C 9.722656 -20.390625 9.671875 -19.804688 9.671875 -19.078125 L 9.671875 -4.25 C 9.671875 -3.5 9.722656 -2.90625 9.828125 -2.46875 C 9.941406 -2.03125 10.085938 -1.695312 10.265625 -1.46875 C 10.441406 -1.25 10.644531 -1.097656 10.875 -1.015625 C 11.113281 -0.929688 11.363281 -0.890625 11.625 -0.890625 L 11.625 0 L 0.453125 0 L 0.453125 -0.890625 C 0.710938 -0.890625 0.960938 -0.929688 1.203125 -1.015625 C 1.441406 -1.097656 1.648438 -1.253906 1.828125 -1.484375 C 2.003906 -1.722656 2.144531 -2.0625 2.25 -2.5 C 2.351562 -2.9375 2.40625 -3.519531 2.40625 -4.25 L 2.40625 -19.078125 C 2.40625 -19.804688 2.347656 -20.394531 2.234375 -20.84375 C 2.117188 -21.289062 1.972656 -21.632812 1.796875 -21.875 C 1.617188 -22.113281 1.410156 -22.265625 1.171875 -22.328125 C 0.929688 -22.398438 0.691406 -22.4375 0.453125 -22.4375 L 0.453125 -23.328125 Z M 11.625 -23.328125 "/></g></g></g><g fill="#0b1320" fill-opacity="1"><g transform="translate(305.3264, 207.896163)"><g><path d="M 16.84375 -23.328125 C 17.332031 -23.328125 17.722656 -23.335938 18.015625 -23.359375 C 18.316406 -23.390625 18.5625 -23.425781 18.75 -23.46875 C 18.9375 -23.519531 19.082031 -23.578125 19.1875 -23.640625 C 19.300781 -23.710938 19.40625 -23.796875 19.5 -23.890625 L 21.3125 -15.734375 L 20.53125 -15.5 C 19.988281 -17.21875 19.03125 -18.5625 17.65625 -19.53125 C 16.28125 -20.5 14.6875 -20.984375 12.875 -20.984375 C 12.164062 -20.984375 11.597656 -20.9375 11.171875 -20.84375 C 10.742188 -20.75 10.414062 -20.566406 10.1875 -20.296875 C 9.96875 -20.023438 9.820312 -19.644531 9.75 -19.15625 C 9.675781 -18.675781 9.640625 -18.035156 9.640625 -17.234375 L 9.640625 -15.703125 L 10.84375 -15.703125 C 11.132812 -15.703125 11.457031 -15.703125 11.8125 -15.703125 C 12.164062 -15.703125 12.519531 -15.722656 12.875 -15.765625 C 13.226562 -15.816406 13.566406 -15.890625 13.890625 -15.984375 C 14.222656 -16.078125 14.5 -16.222656 14.71875 -16.421875 C 15.1875 -16.816406 15.421875 -17.535156 15.421875 -18.578125 L 16.125 -18.6875 L 17.6875 -9.671875 L 16.984375 -9.609375 C 16.648438 -10.410156 16.285156 -11.054688 15.890625 -11.546875 C 15.503906 -12.046875 15.0625 -12.429688 14.5625 -12.703125 C 14.070312 -12.984375 13.503906 -13.160156 12.859375 -13.234375 C 12.222656 -13.316406 11.503906 -13.359375 10.703125 -13.359375 L 9.640625 -13.359375 L 9.640625 -5.5 C 9.640625 -4.238281 9.90625 -3.394531 10.4375 -2.96875 C 10.96875 -2.550781 11.847656 -2.34375 13.078125 -2.34375 C 14.171875 -2.34375 15.15625 -2.488281 16.03125 -2.78125 C 16.90625 -3.070312 17.671875 -3.441406 18.328125 -3.890625 C 18.992188 -4.347656 19.566406 -4.84375 20.046875 -5.375 C 20.535156 -5.90625 20.9375 -6.414062 21.25 -6.90625 C 21.570312 -7.40625 21.828125 -7.835938 22.015625 -8.203125 C 22.203125 -8.566406 22.332031 -8.8125 22.40625 -8.9375 L 23.15625 -8.65625 L 20.140625 0.5625 C 20.015625 0.445312 19.820312 0.320312 19.5625 0.1875 C 19.3125 0.0625 18.851562 0 18.1875 0 L 0.421875 0 L 0.421875 -0.890625 C 0.660156 -0.890625 0.894531 -0.921875 1.125 -0.984375 C 1.363281 -1.054688 1.578125 -1.210938 1.765625 -1.453125 C 1.960938 -1.691406 2.113281 -2.035156 2.21875 -2.484375 C 2.320312 -2.929688 2.375 -3.519531 2.375 -4.25 L 2.375 -19.078125 C 2.375 -19.804688 2.320312 -20.394531 2.21875 -20.84375 C 2.113281 -21.289062 1.960938 -21.625 1.765625 -21.84375 C 1.578125 -22.070312 1.363281 -22.226562 1.125 -22.3125 C 0.894531 -22.394531 0.660156 -22.4375 0.421875 -22.4375 L 0.421875 -23.328125 Z M 16.84375 -23.328125 "/></g></g></g><g fill="#0b1320" fill-opacity="1"><g transform="translate(329.893236, 207.896163)"><g><path d="M 17.296875 -23.15625 C 17.628906 -23.15625 18.007812 -23.210938 18.4375 -23.328125 C 18.863281 -23.441406 19.21875 -23.664062 19.5 -24 L 20.421875 -16.3125 L 19.671875 -16.203125 C 19.441406 -16.816406 19.097656 -17.414062 18.640625 -18 C 18.191406 -18.59375 17.671875 -19.113281 17.078125 -19.5625 C 16.492188 -20.019531 15.851562 -20.382812 15.15625 -20.65625 C 14.457031 -20.925781 13.742188 -21.0625 13.015625 -21.0625 C 12.585938 -21.0625 12.140625 -21.003906 11.671875 -20.890625 C 11.210938 -20.785156 10.796875 -20.617188 10.421875 -20.390625 C 10.046875 -20.171875 9.734375 -19.882812 9.484375 -19.53125 C 9.234375 -19.175781 9.109375 -18.753906 9.109375 -18.265625 C 9.109375 -17.929688 9.164062 -17.640625 9.28125 -17.390625 C 9.40625 -17.140625 9.609375 -16.914062 9.890625 -16.71875 C 10.171875 -16.519531 10.546875 -16.332031 11.015625 -16.15625 C 11.492188 -15.976562 12.085938 -15.78125 12.796875 -15.5625 L 16.953125 -14.328125 C 17.773438 -14.066406 18.546875 -13.734375 19.265625 -13.328125 C 19.984375 -12.929688 20.609375 -12.453125 21.140625 -11.890625 C 21.679688 -11.335938 22.097656 -10.726562 22.390625 -10.0625 C 22.679688 -9.40625 22.828125 -8.710938 22.828125 -7.984375 C 22.828125 -5.191406 21.847656 -3.066406 19.890625 -1.609375 C 17.929688 -0.160156 15 0.5625 11.09375 0.5625 C 10.101562 0.5625 9.175781 0.503906 8.3125 0.390625 C 7.445312 0.273438 6.722656 0.15625 6.140625 0.03125 C 5.734375 -0.0390625 5.320312 -0.113281 4.90625 -0.1875 C 4.5 -0.269531 4.128906 -0.3125 3.796875 -0.3125 C 3.460938 -0.3125 3.140625 -0.253906 2.828125 -0.140625 C 2.523438 -0.0234375 2.207031 0.195312 1.875 0.53125 L 1.09375 -9.359375 L 1.875 -9.46875 C 2.039062 -8.425781 2.363281 -7.46875 2.84375 -6.59375 C 3.332031 -5.71875 3.941406 -4.960938 4.671875 -4.328125 C 5.410156 -3.691406 6.242188 -3.1875 7.171875 -2.8125 C 8.109375 -2.445312 9.109375 -2.265625 10.171875 -2.265625 C 11.171875 -2.265625 11.992188 -2.359375 12.640625 -2.546875 C 13.285156 -2.742188 13.804688 -3 14.203125 -3.3125 C 14.609375 -3.632812 14.894531 -4.003906 15.0625 -4.421875 C 15.226562 -4.847656 15.3125 -5.300781 15.3125 -5.78125 C 15.3125 -5.988281 15.273438 -6.203125 15.203125 -6.421875 C 15.140625 -6.648438 14.988281 -6.890625 14.75 -7.140625 C 14.507812 -7.390625 14.148438 -7.644531 13.671875 -7.90625 C 13.203125 -8.164062 12.566406 -8.425781 11.765625 -8.6875 L 7.984375 -9.921875 C 6.847656 -10.273438 5.882812 -10.65625 5.09375 -11.0625 C 4.300781 -11.46875 3.664062 -11.972656 3.1875 -12.578125 C 2.789062 -13.078125 2.472656 -13.625 2.234375 -14.21875 C 1.992188 -14.8125 1.875 -15.445312 1.875 -16.125 C 1.875 -17.3125 2.070312 -18.375 2.46875 -19.3125 C 2.875 -20.257812 3.492188 -21.078125 4.328125 -21.765625 C 5.109375 -22.398438 6.050781 -22.910156 7.15625 -23.296875 C 8.269531 -23.691406 9.5 -23.890625 10.84375 -23.890625 C 12.070312 -23.890625 13.164062 -23.816406 14.125 -23.671875 C 15.082031 -23.535156 15.820312 -23.410156 16.34375 -23.296875 C 16.789062 -23.203125 17.109375 -23.15625 17.296875 -23.15625 Z M 17.296875 -23.15625 "/></g></g></g><g fill="#0b1320" fill-opacity="1"><g transform="translate(113.754592, 246.146161)"><g><path d="M 12.125 -20.984375 C 11.601562 -20.984375 11.175781 -20.9375 10.84375 -20.84375 C 10.519531 -20.75 10.269531 -20.59375 10.09375 -20.375 C 9.914062 -20.164062 9.796875 -19.890625 9.734375 -19.546875 C 9.671875 -19.203125 9.640625 -18.785156 9.640625 -18.296875 L 9.640625 -13.296875 C 10.234375 -13.429688 10.882812 -13.625 11.59375 -13.875 C 12.300781 -14.125 12.960938 -14.445312 13.578125 -14.84375 C 14.191406 -15.25 14.703125 -15.722656 15.109375 -16.265625 C 15.523438 -16.816406 15.734375 -17.457031 15.734375 -18.1875 C 15.734375 -19.15625 15.390625 -19.863281 14.703125 -20.3125 C 14.023438 -20.757812 13.164062 -20.984375 12.125 -20.984375 Z M 15.84375 -23.328125 C 16.15625 -23.328125 16.570312 -23.320312 17.09375 -23.3125 C 17.613281 -23.300781 18.148438 -23.265625 18.703125 -23.203125 C 19.253906 -23.140625 19.800781 -23.039062 20.34375 -22.90625 C 20.894531 -22.78125 21.347656 -22.585938 21.703125 -22.328125 C 22.097656 -22.046875 22.453125 -21.664062 22.765625 -21.1875 C 23.085938 -20.71875 23.25 -20.109375 23.25 -19.359375 C 23.25 -18.390625 23.035156 -17.519531 22.609375 -16.75 C 22.191406 -15.976562 21.46875 -15.253906 20.4375 -14.578125 C 19.40625 -13.910156 18.03125 -13.269531 16.3125 -12.65625 C 14.601562 -12.039062 12.472656 -11.414062 9.921875 -10.78125 L 9.640625 -10.703125 L 9.640625 -4.296875 C 9.640625 -3.515625 9.71875 -2.894531 9.875 -2.4375 C 10.03125 -1.988281 10.210938 -1.644531 10.421875 -1.40625 C 10.640625 -1.175781 10.867188 -1.03125 11.109375 -0.96875 C 11.359375 -0.914062 11.59375 -0.890625 11.8125 -0.890625 L 11.8125 0 L 0.5 0 L 0.5 -0.890625 C 0.757812 -0.890625 1.003906 -0.929688 1.234375 -1.015625 C 1.472656 -1.097656 1.675781 -1.253906 1.84375 -1.484375 C 2.007812 -1.722656 2.140625 -2.0625 2.234375 -2.5 C 2.328125 -2.9375 2.375 -3.507812 2.375 -4.21875 L 2.375 -19.109375 C 2.375 -19.816406 2.328125 -20.390625 2.234375 -20.828125 C 2.140625 -21.265625 2.003906 -21.597656 1.828125 -21.828125 C 1.648438 -22.066406 1.445312 -22.226562 1.21875 -22.3125 C 1 -22.394531 0.757812 -22.4375 0.5 -22.4375 L 0.5 -23.328125 Z M 15.84375 -23.328125 "/></g></g></g><g fill="#0b1320" fill-opacity="1"><g transform="translate(138.321428, 246.146161)"><g><path d="M 12.65625 -23.328125 L 12.65625 -22.4375 C 12.113281 -22.363281 11.664062 -22.210938 11.3125 -21.984375 C 10.957031 -21.765625 10.78125 -21.410156 10.78125 -20.921875 C 10.78125 -20.628906 10.8125 -20.347656 10.875 -20.078125 C 10.945312 -19.804688 11.019531 -19.566406 11.09375 -19.359375 L 15.109375 -6.765625 L 19.609375 -19.28125 C 19.742188 -19.6875 19.851562 -20.023438 19.9375 -20.296875 C 20.019531 -20.566406 20.0625 -20.867188 20.0625 -21.203125 C 20.0625 -21.890625 19.585938 -22.300781 18.640625 -22.4375 L 18.640625 -23.328125 L 25.421875 -23.328125 L 25.421875 -22.4375 C 25.066406 -22.320312 24.769531 -22.179688 24.53125 -22.015625 C 24.289062 -21.847656 24.078125 -21.628906 23.890625 -21.359375 C 23.703125 -21.085938 23.507812 -20.726562 23.3125 -20.28125 C 23.113281 -19.832031 22.894531 -19.265625 22.65625 -18.578125 L 17.265625 -3.796875 C 17.148438 -3.515625 17.050781 -3.222656 16.96875 -2.921875 C 16.882812 -2.628906 16.84375 -2.351562 16.84375 -2.09375 C 16.84375 -1.332031 17.253906 -0.929688 18.078125 -0.890625 L 18.078125 0 L 8.265625 0 L 8.265625 -0.890625 C 8.640625 -0.929688 8.925781 -1.035156 9.125 -1.203125 C 9.332031 -1.367188 9.4375 -1.640625 9.4375 -2.015625 C 9.4375 -2.203125 9.398438 -2.421875 9.328125 -2.671875 C 9.253906 -2.921875 9.171875 -3.175781 9.078125 -3.4375 L 4.046875 -18.40625 C 3.785156 -19.175781 3.546875 -19.8125 3.328125 -20.3125 C 3.117188 -20.8125 2.894531 -21.207031 2.65625 -21.5 C 2.414062 -21.800781 2.148438 -22.019531 1.859375 -22.15625 C 1.566406 -22.300781 1.226562 -22.394531 0.84375 -22.4375 L 0.84375 -23.328125 Z M 12.65625 -23.328125 "/></g></g></g><g fill="#0b1320" fill-opacity="1"><g transform="translate(165.72419, 246.146161)"><g><path d="M 1.34375 -23.890625 C 1.363281 -23.847656 1.410156 -23.789062 1.484375 -23.71875 C 1.554688 -23.644531 1.679688 -23.578125 1.859375 -23.515625 C 2.035156 -23.460938 2.28125 -23.414062 2.59375 -23.375 C 2.914062 -23.34375 3.351562 -23.328125 3.90625 -23.328125 L 17.1875 -23.328125 C 17.757812 -23.328125 18.21875 -23.335938 18.5625 -23.359375 C 18.90625 -23.390625 19.171875 -23.425781 19.359375 -23.46875 C 19.546875 -23.519531 19.6875 -23.578125 19.78125 -23.640625 C 19.875 -23.710938 19.957031 -23.796875 20.03125 -23.890625 L 21.65625 -15.8125 L 20.953125 -15.671875 C 20.335938 -17.273438 19.503906 -18.488281 18.453125 -19.3125 C 17.398438 -20.144531 16.007812 -20.617188 14.28125 -20.734375 L 14.28125 -4.4375 C 14.28125 -3.0625 14.5 -2.128906 14.9375 -1.640625 C 15.375 -1.160156 16.09375 -0.910156 17.09375 -0.890625 L 17.09375 0 L 4.21875 0 L 4.21875 -0.890625 C 5.207031 -0.910156 5.921875 -1.160156 6.359375 -1.640625 C 6.796875 -2.128906 7.015625 -3.0625 7.015625 -4.4375 L 7.015625 -20.734375 C 5.410156 -20.691406 4.007812 -20.257812 2.8125 -19.4375 C 1.625 -18.625 0.804688 -17.367188 0.359375 -15.671875 L -0.390625 -15.8125 Z M 1.34375 -23.890625 "/></g></g></g><g fill="#0b1320" fill-opacity="1"><g transform="translate(188.164073, 246.146161)"><g/></g></g><g fill="#0b1320" fill-opacity="1"><g transform="translate(201.387182, 246.146161)"><g><path d="M 11.765625 -23.328125 L 11.8125 -22.4375 C 11.550781 -22.4375 11.304688 -22.398438 11.078125 -22.328125 C 10.859375 -22.265625 10.648438 -22.113281 10.453125 -21.875 C 10.265625 -21.632812 10.117188 -21.289062 10.015625 -20.84375 C 9.910156 -20.394531 9.859375 -19.804688 9.859375 -19.078125 L 9.859375 -4.359375 C 9.859375 -4.054688 9.882812 -3.78125 9.9375 -3.53125 C 10 -3.28125 10.125 -3.066406 10.3125 -2.890625 C 10.5 -2.710938 10.765625 -2.578125 11.109375 -2.484375 C 11.453125 -2.390625 11.894531 -2.34375 12.4375 -2.34375 C 13.476562 -2.34375 14.457031 -2.550781 15.375 -2.96875 C 16.300781 -3.394531 17.140625 -3.945312 17.890625 -4.625 C 18.648438 -5.300781 19.3125 -6.066406 19.875 -6.921875 C 20.445312 -7.785156 20.910156 -8.671875 21.265625 -9.578125 L 21.984375 -9.328125 L 19.03125 0.5625 C 18.894531 0.300781 18.671875 0.140625 18.359375 0.078125 C 18.054688 0.0234375 17.617188 0 17.046875 0 L 0.640625 0 L 0.640625 -0.890625 C 0.878906 -0.890625 1.113281 -0.921875 1.34375 -0.984375 C 1.582031 -1.054688 1.796875 -1.210938 1.984375 -1.453125 C 2.171875 -1.691406 2.316406 -2.035156 2.421875 -2.484375 C 2.535156 -2.929688 2.59375 -3.519531 2.59375 -4.25 L 2.59375 -19.078125 C 2.59375 -19.804688 2.53125 -20.394531 2.40625 -20.84375 C 2.289062 -21.289062 2.144531 -21.632812 1.96875 -21.875 C 1.789062 -22.113281 1.582031 -22.265625 1.34375 -22.328125 C 1.113281 -22.398438 0.878906 -22.4375 0.640625 -22.4375 L 0.640625 -23.328125 Z M 11.765625 -23.328125 "/></g></g></g><g fill="#0b1320" fill-opacity="1"><g transform="translate(224.536049, 246.146161)"><g><path d="M 1.34375 -23.890625 C 1.363281 -23.847656 1.410156 -23.789062 1.484375 -23.71875 C 1.554688 -23.644531 1.679688 -23.578125 1.859375 -23.515625 C 2.035156 -23.460938 2.28125 -23.414062 2.59375 -23.375 C 2.914062 -23.34375 3.351562 -23.328125 3.90625 -23.328125 L 17.1875 -23.328125 C 17.757812 -23.328125 18.21875 -23.335938 18.5625 -23.359375 C 18.90625 -23.390625 19.171875 -23.425781 19.359375 -23.46875 C 19.546875 -23.519531 19.6875 -23.578125 19.78125 -23.640625 C 19.875 -23.710938 19.957031 -23.796875 20.03125 -23.890625 L 21.65625 -15.8125 L 20.953125 -15.671875 C 20.335938 -17.273438 19.503906 -18.488281 18.453125 -19.3125 C 17.398438 -20.144531 16.007812 -20.617188 14.28125 -20.734375 L 14.28125 -4.4375 C 14.28125 -3.0625 14.5 -2.128906 14.9375 -1.640625 C 15.375 -1.160156 16.09375 -0.910156 17.09375 -0.890625 L 17.09375 0 L 4.21875 0 L 4.21875 -0.890625 C 5.207031 -0.910156 5.921875 -1.160156 6.359375 -1.640625 C 6.796875 -2.128906 7.015625 -3.0625 7.015625 -4.4375 L 7.015625 -20.734375 C 5.410156 -20.691406 4.007812 -20.257812 2.8125 -19.4375 C 1.625 -18.625 0.804688 -17.367188 0.359375 -15.671875 L -0.390625 -15.8125 Z M 1.34375 -23.890625 "/></g></g></g><g fill="#0b1320" fill-opacity="1"><g transform="translate(246.975932, 246.146161)"><g><path d="M 11.90625 -20.984375 C 11.488281 -20.984375 11.140625 -20.910156 10.859375 -20.765625 C 10.585938 -20.628906 10.378906 -20.429688 10.234375 -20.171875 C 10.097656 -19.910156 10.003906 -19.609375 9.953125 -19.265625 C 9.910156 -18.921875 9.890625 -18.550781 9.890625 -18.15625 L 9.890625 -5.953125 C 9.890625 -5.242188 9.925781 -4.648438 10 -4.171875 C 10.070312 -3.703125 10.207031 -3.332031 10.40625 -3.0625 C 10.601562 -2.789062 10.863281 -2.601562 11.1875 -2.5 C 11.507812 -2.394531 11.914062 -2.34375 12.40625 -2.34375 C 13.539062 -2.34375 14.519531 -2.601562 15.34375 -3.125 C 16.175781 -3.644531 16.851562 -4.3125 17.375 -5.125 C 17.894531 -5.9375 18.273438 -6.847656 18.515625 -7.859375 C 18.765625 -8.878906 18.890625 -9.875 18.890625 -10.84375 C 18.890625 -11.863281 18.757812 -12.960938 18.5 -14.140625 C 18.238281 -15.328125 17.828125 -16.425781 17.265625 -17.4375 C 16.703125 -18.457031 15.972656 -19.300781 15.078125 -19.96875 C 14.191406 -20.644531 13.132812 -20.984375 11.90625 -20.984375 Z M 12.375 -23.328125 C 14.664062 -23.328125 16.570312 -23.078125 18.09375 -22.578125 C 19.625 -22.085938 20.941406 -21.367188 22.046875 -20.421875 C 22.921875 -19.691406 23.632812 -18.910156 24.1875 -18.078125 C 24.75 -17.253906 25.191406 -16.421875 25.515625 -15.578125 C 25.847656 -14.742188 26.078125 -13.921875 26.203125 -13.109375 C 26.335938 -12.304688 26.40625 -11.578125 26.40625 -10.921875 C 26.40625 -10.441406 26.367188 -9.882812 26.296875 -9.25 C 26.234375 -8.613281 26.09375 -7.953125 25.875 -7.265625 C 25.664062 -6.578125 25.363281 -5.875 24.96875 -5.15625 C 24.582031 -4.4375 24.082031 -3.757812 23.46875 -3.125 C 22.570312 -2.175781 21.359375 -1.414062 19.828125 -0.84375 C 18.304688 -0.28125 16.378906 0 14.046875 0 L 0.671875 0 L 0.671875 -0.890625 C 0.910156 -0.890625 1.144531 -0.921875 1.375 -0.984375 C 1.613281 -1.054688 1.828125 -1.210938 2.015625 -1.453125 C 2.203125 -1.691406 2.347656 -2.035156 2.453125 -2.484375 C 2.566406 -2.929688 2.625 -3.519531 2.625 -4.25 L 2.625 -19.078125 C 2.625 -19.804688 2.5625 -20.394531 2.4375 -20.84375 C 2.320312 -21.289062 2.175781 -21.632812 2 -21.875 C 1.820312 -22.113281 1.613281 -22.265625 1.375 -22.328125 C 1.144531 -22.398438 0.910156 -22.4375 0.671875 -22.4375 L 0.671875 -23.328125 Z M 12.375 -23.328125 "/></g></g></g></svg>